<?xml version="1.0" encoding="UTF-8"?>
<svg width="386px" height="227px" viewBox="0 0 386 227" version="1.1" xmlns="http://www.w3.org/2000/svg" xmlns:xlink="http://www.w3.org/1999/xlink">
    <!-- Generator: Sketch 55 (78076) - https://sketchapp.com -->
    <title>Vue.js_Logo_2 Copy 7</title>
    <desc>Created with Sketch.</desc>
    <g id="vue-swap" stroke="none" stroke-width="1" fill="none" fill-rule="evenodd">
        <g id="Vue.js_Logo_2-Copy-7" transform="translate(193.500000, 113.500000) rotate(-90.000000) translate(-193.500000, -113.500000) translate(78.500000, -80.500000)" fill-rule="nonzero">
            <g id="Group" transform="translate(115.187100, 193.508800) scale(-1, 1) rotate(-180.000000) translate(-115.187100, -193.508800) translate(0.687100, 0.008800)">
                <g transform="translate(23.079998, 0.013333)" fill="#41B883" opacity="0.25">
                    <polygon id="Path" transform="translate(91.389069, 280.618739) rotate(-90.000000) translate(-91.389069, -280.618739) " points="115.637694 371.618739 91.389069 329.588107 67.1404443 371.618739 -13.610931 371.618739 91.389069 189.618739 196.389069 371.618739"></polygon>
                    <polygon id="Path-Copy-2" transform="translate(91.389069, 105.618739) rotate(-90.000000) translate(-91.389069, -105.618739) " points="115.637694 196.618739 91.389069 154.588107 67.1404443 196.618739 -13.610931 196.618739 91.389069 14.618739 196.389069 196.618739"></polygon>
                </g>
                <g transform="translate(114.312900, 192.508800) rotate(-90.000000) translate(-114.312900, -192.508800) translate(-17.187100, 78.508800)">
                    <polygon id="Path-Copy" fill="#41B883" points="161.380828 227.5 131.15625 175.149309 100.931672 227.5 0.279522 227.5 131.15625 0.812334 262.032978 227.5"></polygon>
                    <polygon id="Path" fill="#34495E" points="161.250614 227.5 131.026037 175.149309 100.801459 227.5 52.5 227.5 131.026037 91.490067 209.552074 227.5"></polygon>
                </g>
            </g>
        </g>
    </g>
</svg>